<?xml version="1.0" encoding="UTF-8"?>
<svg xmlns="http://www.w3.org/2000/svg" xmlns:xlink="http://www.w3.org/1999/xlink" viewBox="0 0 60 60" width="60px" height="60px">
<g id="surface491170">
<path style=" stroke:none;fill-rule:nonzero;fill:rgb(0%,48.235294%,100%);fill-opacity:1;" d="M 30 60 C 13.429688 60 0 46.570312 0 30 C 0 13.429688 13.429688 0 30 0 C 46.570312 0 60 13.429688 60 30 C 60 46.570312 46.570312 60 30 60 Z M 30 60 "/>
<path style=" stroke:none;fill-rule:nonzero;fill:rgb(100%,100%,100%);fill-opacity:1;" d="M 25.042969 19.875 C 23.949219 19.875 23.0625 20.761719 23.0625 21.855469 C 23.0625 22.949219 23.949219 23.855469 25.042969 23.855469 C 26.136719 23.855469 27.023438 22.949219 27.023438 21.855469 C 27.023438 20.761719 26.140625 19.875 25.042969 19.875 Z M 34.714844 25.125 C 33.050781 25.125 32.097656 25.996094 31.640625 26.859375 L 31.59375 26.859375 L 31.59375 25.359375 L 28.3125 25.359375 L 28.3125 36.375 L 31.730469 36.375 L 31.730469 30.921875 C 31.730469 29.484375 31.839844 28.09375 33.617188 28.09375 C 35.371094 28.09375 35.394531 29.734375 35.394531 31.011719 L 35.394531 36.375 L 38.8125 36.375 L 38.8125 30.324219 C 38.8125 27.363281 38.175781 25.125 34.714844 25.125 Z M 23.335938 25.359375 L 23.335938 36.375 L 26.753906 36.375 L 26.753906 25.359375 Z M 23.335938 25.359375 "/>
</g>
</svg>
