<?xml version="1.0" encoding="UTF-8"?>
<svg xmlns="http://www.w3.org/2000/svg" xmlns:xlink="http://www.w3.org/1999/xlink" viewBox="0 0 48 48" width="48px" height="48px">
<g id="surface460842">
<path style=" stroke:none;fill-rule:nonzero;fill:rgb(0%,48.235294%,100%);fill-opacity:1;" d="M 24 48 C 10.746094 48 0 37.253906 0 24 C 0 10.746094 10.746094 0 24 0 C 37.253906 0 48 10.746094 48 24 C 48 37.253906 37.253906 48 24 48 Z M 24 48 "/>
<path style=" stroke:none;fill-rule:nonzero;fill:rgb(100%,100%,100%);fill-opacity:1;" d="M 29.789062 21 L 26.261719 21 L 26.261719 19 C 26.261719 17.96875 26.347656 17.316406 27.824219 17.316406 L 29.695312 17.316406 L 29.695312 14.136719 C 28.785156 14.042969 27.871094 13.996094 26.957031 14 C 24.242188 14 22.261719 15.65625 22.261719 18.699219 L 22.261719 21 L 19.261719 21 L 19.261719 25 L 22.261719 25 L 22.261719 34 L 26.261719 34 L 26.261719 24.996094 L 29.328125 24.996094 Z M 29.789062 21 "/>
</g>
</svg>
