<?xml version="1.0" encoding="UTF-8"?>
<svg xmlns="http://www.w3.org/2000/svg" xmlns:xlink="http://www.w3.org/1999/xlink" viewBox="0 0 60 60" width="60px" height="60px">
<g id="surface2131585">
<path style=" stroke:none;fill-rule:nonzero;fill:rgb(0%,48.235294%,100%);fill-opacity:1;" d="M 30 60 C 13.429688 60 0 46.570312 0 30 C 0 13.429688 13.429688 0 30 0 C 46.570312 0 60 13.429688 60 30 C 60 46.570312 46.570312 60 30 60 Z M 30 60 "/>
<path style=" stroke:none;fill-rule:nonzero;fill:rgb(100%,100%,100%);fill-opacity:1;" d="M 40 23.796875 C 39.265625 24.125 38.472656 24.34375 37.644531 24.441406 C 38.492188 23.933594 39.140625 23.132812 39.449219 22.171875 C 38.65625 22.644531 37.777344 22.984375 36.84375 23.167969 C 36.09375 22.371094 35.027344 21.871094 33.847656 21.871094 C 31.578125 21.871094 29.742188 23.710938 29.742188 25.976562 C 29.742188 26.296875 29.78125 26.613281 29.847656 26.910156 C 26.4375 26.742188 23.414062 25.105469 21.390625 22.621094 C 21.035156 23.230469 20.835938 23.933594 20.835938 24.6875 C 20.835938 26.109375 21.558594 27.367188 22.660156 28.101562 C 21.988281 28.082031 21.351562 27.894531 20.800781 27.589844 C 20.800781 27.605469 20.800781 27.625 20.800781 27.640625 C 20.800781 29.628906 22.214844 31.289062 24.09375 31.664062 C 23.75 31.757812 23.386719 31.808594 23.011719 31.808594 C 22.746094 31.808594 22.488281 31.78125 22.238281 31.734375 C 22.761719 33.367188 24.277344 34.554688 26.074219 34.585938 C 24.667969 35.6875 22.898438 36.34375 20.976562 36.34375 C 20.644531 36.34375 20.316406 36.324219 19.996094 36.285156 C 21.8125 37.449219 23.96875 38.128906 26.289062 38.128906 C 33.835938 38.128906 37.964844 31.875 37.964844 26.453125 C 37.964844 26.273438 37.960938 26.097656 37.953125 25.921875 C 38.753906 25.339844 39.453125 24.621094 40 23.796875 Z M 40 23.796875 "/>
</g>
</svg>
